<svg width="110" height="116" viewBox="0 0 110 116" fill="none" xmlns="http://www.w3.org/2000/svg">
<path d="M95.2926 92.1128C94.4065 86.5061 90.2 82.1561 84.9342 81.2861C82.7954 76.9147 78.5278 74.1435 73.8426 74.1435L70.7565 78.7084C70.2574 79.4495 69.7176 80.1261 69.0963 80.7813C68.3324 81.5332 67.4055 81.9306 66.4176 81.9306C66.2139 81.9306 66.0407 81.9198 65.837 81.8769L65.6231 81.8339C64.4111 81.5654 63.4129 80.6847 62.9139 79.4924C61.5389 76.0339 58.3611 73.8106 54.8065 73.8106C53.1972 73.8106 51.6185 74.2617 50.2741 75.1424C49.7139 75.5184 49.0111 75.7332 48.2879 75.7332C47.7278 75.7332 47.1778 75.615 46.6889 75.3572C45.7518 74.9169 45.0389 74.0791 44.7028 73.048C43.8472 74.0147 43.1139 75.0887 42.5333 76.2487C40.5268 74.8632 38.1741 74.1328 35.7602 74.1328C31.075 74.1328 26.7972 76.9039 24.6685 81.2754C19.4028 82.1454 15.1963 86.5061 14.3102 92.0913C14.1879 92.9506 14.412 93.8313 14.9416 94.5187C15.512 95.2169 16.3268 95.6143 17.2028 95.6143H92.4102C93.2861 95.6143 94.1009 95.2169 94.6713 94.4973C95.1907 93.8421 95.4148 92.9613 95.2926 92.1128ZM29.4454 89.7713C28.7426 89.7713 28.1111 89.0839 28.1111 88.3535C28.1111 87.6232 28.7426 86.9573 29.4454 86.9573C30.1583 86.9573 30.7796 87.6124 30.7796 88.3535C30.7796 89.0947 30.1481 89.7713 29.4454 89.7713ZM38.4287 84.2291C37.7259 84.2291 37.0944 83.5417 37.0944 82.8113C37.0944 82.0595 37.7259 81.415 38.4287 81.415C39.1315 81.415 39.7629 82.0595 39.7629 82.8113C39.7629 83.5417 39.1213 84.2291 38.4287 84.2291ZM42.9102 89.621C42.2074 89.621 41.5759 88.9336 41.5759 88.2032C41.5759 87.4621 42.2074 86.8069 42.9102 86.8069C43.6129 86.8069 44.2444 87.4621 44.2444 88.2032C44.2444 88.9443 43.6129 89.621 42.9102 89.621ZM52.0972 87.0217C51.3944 87.0217 50.7629 86.3343 50.7629 85.6039C50.7629 84.8628 51.3944 84.2076 52.0972 84.2076C52.8 84.2076 53.4315 84.8628 53.4315 85.6039C53.4315 86.345 52.8 87.0217 52.0972 87.0217ZM54.0324 79.3421C53.3296 79.3421 52.6981 78.6547 52.6981 77.9243C52.6981 77.1832 53.3296 76.528 54.0324 76.528C54.7454 76.528 55.3666 77.1832 55.3666 77.9243C55.3666 78.6654 54.7454 79.3421 54.0324 79.3421ZM61.325 91.1354C60.6222 91.1354 59.9907 90.448 59.9907 89.7176C59.9907 88.9765 60.6222 88.3213 61.325 88.3213C62.0278 88.3213 62.6592 88.9765 62.6592 89.7176C62.6592 90.4587 62.0278 91.1354 61.325 91.1354ZM64.9102 87.4728C64.2074 87.4728 63.5759 86.8069 63.5759 86.0658C63.5759 85.3139 64.2074 84.6695 64.9102 84.6695C65.6129 84.6695 66.2444 85.3139 66.2444 86.0658C66.2444 86.7961 65.6028 87.4728 64.9102 87.4728ZM74.0463 84.3473C73.3435 84.3473 72.712 83.6598 72.712 82.9295C72.712 82.1776 73.3435 81.5332 74.0463 81.5332C74.7491 81.5332 75.3805 82.1776 75.3805 82.9295C75.3805 83.6598 74.7491 84.3473 74.0463 84.3473ZM81.95 89.621C81.237 89.621 80.6157 88.9336 80.6157 88.2032C80.6157 87.4621 81.237 86.8069 81.95 86.8069C82.6528 86.8069 83.2842 87.4621 83.2842 88.2032C83.2842 88.9443 82.6528 89.621 81.95 89.621ZM74.1176 66.8184H74.1278H74.1176Z" fill="black"/>
<path d="M75.1667 67.5917H75.1565L68.6889 77.1617C68.2611 77.8062 67.8028 78.3647 67.3037 78.891C67.0593 79.1273 66.7435 79.2669 66.4176 79.2669C66.326 79.2669 66.2547 79.2562 66.163 79.2454C65.7556 79.1488 65.4093 78.8588 65.2463 78.4506C63.4843 74.0147 59.3797 71.1469 54.7963 71.1469C52.7084 71.1469 50.6917 71.7377 48.9398 72.8654C48.5834 73.1017 48.125 73.1339 47.7482 72.9406C47.351 72.758 47.0861 72.3606 47.025 71.9202C46.5565 68.6658 47.2898 65.4114 49.113 62.7262L55.713 52.9521C56.7723 51.3947 58.8297 51.0402 60.3167 52.1358L62.201 53.5536L59.4204 57.678C58.2084 59.461 57.3834 61.4588 56.9658 63.5747L56.6704 64.9602C56.263 67.001 57.0473 69.1062 58.6871 70.3306C59.5223 70.9428 60.5408 71.2973 61.5287 71.2973C62.3945 71.2973 63.2704 71.0395 64.1056 70.5347L65.226 69.8151C67.0186 68.6765 68.526 67.2051 69.7278 65.4328L72.5084 61.3191L74.3926 62.7369C75.1056 63.2632 75.5843 64.0688 75.7371 64.9925C75.8593 65.9054 75.676 66.8291 75.1667 67.5917Z" fill="black"/>
<path d="M84.7408 38.5591L67.6399 63.8857C66.6316 65.368 65.3788 66.5924 63.9019 67.5268L62.7714 68.2465C62.3742 68.4828 61.9464 68.6224 61.5084 68.6224C61.0297 68.6224 60.5306 68.4506 60.1131 68.1391C59.3084 67.5376 58.9316 66.528 59.1353 65.5076L59.4103 64.1543C59.7668 62.3713 60.4492 60.728 61.4575 59.235L78.5584 33.9083C79.3121 35.0254 80.2186 35.9813 81.2677 36.7654C82.3473 37.5709 83.4982 38.1831 84.7408 38.5591ZM95.7408 30.9546C95.7001 30.1491 95.3232 29.4294 94.7019 28.9569L83.926 20.8583C83.3047 20.3857 82.5306 20.2461 81.7871 20.4717C81.0538 20.6972 80.4631 21.2665 80.1779 22.0076L79.6584 23.3502C78.4973 26.3683 78.8843 29.7302 80.6668 32.3724C81.2371 33.2317 81.9501 33.9835 82.7751 34.5957C83.5899 35.208 84.4862 35.6806 85.4538 35.9706C86.289 36.2283 87.1445 36.3572 87.9797 36.3572C90.1186 36.3572 92.2066 35.5409 93.8668 34.0157L94.8955 33.0598C94.9056 33.0598 94.9056 33.0598 94.9056 33.0598C95.4658 32.5335 95.7714 31.7709 95.7408 30.9546ZM91.9723 31.7602C90.8519 32.7913 89.4362 33.3606 87.9695 33.3606C87.4093 33.3606 86.8186 33.2746 86.2279 33.092C85.5862 32.8987 84.9853 32.5872 84.4251 32.1576L84.4047 32.1468C83.8445 31.728 83.3658 31.2231 82.9788 30.6431L82.9686 30.6324C81.7566 28.828 81.5019 26.5402 82.2862 24.4887L82.6325 23.5972L92.6547 31.1265L91.9723 31.7602Z" fill="black"/>
</svg>
