<svg width="32" height="32" viewBox="0 0 32 32" fill="none" xmlns="http://www.w3.org/2000/svg">
<path d="M27.459 6.07017V25.5422C27.459 25.6713 27.4073 25.7951 27.3155 25.8864C27.2236 25.9777 27.099 26.029 26.9691 26.029H23.5398V10.9041C23.5306 10.5287 23.3762 10.1714 23.1087 9.90615L19.1896 6.01175C18.9288 5.75165 18.579 5.5987 18.2098 5.58337H8.84302V2.17577C8.84302 2.04667 8.89463 1.92285 8.9865 1.83155C9.07838 1.74026 9.20298 1.68897 9.33291 1.68897H23.0499C23.1144 1.6886 23.1783 1.70088 23.238 1.72511C23.2977 1.74933 23.352 1.78503 23.3977 1.83014L27.3169 5.72454C27.3623 5.77003 27.3982 5.82397 27.4226 5.88328C27.447 5.94259 27.4593 6.0061 27.459 6.07017Z" fill="black"/>
<path d="M22.418 10.5923L18.4988 6.69791C18.43 6.63036 18.3425 6.5846 18.2474 6.56641C18.1524 6.54821 18.0541 6.5584 17.9649 6.59568C17.8754 6.6322 17.7988 6.69422 17.7448 6.77391C17.6907 6.85361 17.6616 6.94743 17.6611 7.04353V10.9379C17.6611 11.067 17.7127 11.1909 17.8046 11.2821C17.8965 11.3734 18.0211 11.4247 18.151 11.4247H22.0702C22.1669 11.4243 22.2613 11.3953 22.3415 11.3416C22.4217 11.2879 22.4841 11.2118 22.5209 11.1229C22.5584 11.0343 22.5686 10.9366 22.5503 10.8421C22.532 10.7477 22.486 10.6608 22.418 10.5923Z" fill="black"/>
<path d="M22.0701 12.3987H18.151C17.7612 12.3987 17.3874 12.2449 17.1118 11.971C16.8362 11.6971 16.6813 11.3256 16.6813 10.9383V7.04393C16.6807 6.87769 16.7106 6.71272 16.7695 6.55713H4.43399C4.30406 6.55713 4.17945 6.60842 4.08758 6.69971C3.99571 6.791 3.94409 6.91482 3.94409 7.04393V30.4103C3.94409 30.5394 3.99571 30.6632 4.08758 30.7545C4.17945 30.8458 4.30406 30.8971 4.43399 30.8971H22.0701C22.2001 30.8971 22.3247 30.8458 22.4166 30.7545C22.5084 30.6632 22.56 30.5394 22.56 30.4103V12.3111C22.4035 12.3696 22.2374 12.3993 22.0701 12.3987ZM7.86324 10.4515H14.7217C14.8517 10.4515 14.9763 10.5028 15.0682 10.5941C15.16 10.6854 15.2116 10.8092 15.2116 10.9383C15.2116 11.0674 15.16 11.1913 15.0682 11.2825C14.9763 11.3738 14.8517 11.4251 14.7217 11.4251H7.86324C7.73331 11.4251 7.6087 11.3738 7.51683 11.2825C7.42496 11.1913 7.37334 11.0674 7.37334 10.9383C7.37334 10.8092 7.42496 10.6854 7.51683 10.5941C7.6087 10.5028 7.73331 10.4515 7.86324 10.4515ZM18.6409 27.0027H7.86324C7.73331 27.0027 7.6087 26.9514 7.51683 26.8601C7.42496 26.7688 7.37334 26.645 7.37334 26.5159C7.37334 26.3868 7.42496 26.263 7.51683 26.1717C7.6087 26.0804 7.73331 26.0291 7.86324 26.0291H18.6409C18.7708 26.0291 18.8954 26.0804 18.9873 26.1717C19.0792 26.263 19.1308 26.3868 19.1308 26.5159C19.1308 26.645 19.0792 26.7688 18.9873 26.8601C18.8954 26.9514 18.7708 27.0027 18.6409 27.0027ZM18.6409 23.1083H7.86324C7.73331 23.1083 7.6087 23.057 7.51683 22.9657C7.42496 22.8744 7.37334 22.7506 7.37334 22.6215C7.37334 22.4924 7.42496 22.3686 7.51683 22.2773C7.6087 22.186 7.73331 22.1347 7.86324 22.1347H18.6409C18.7708 22.1347 18.8954 22.186 18.9873 22.2773C19.0792 22.3686 19.1308 22.4924 19.1308 22.6215C19.1308 22.7506 19.0792 22.8744 18.9873 22.9657C18.8954 23.057 18.7708 23.1083 18.6409 23.1083ZM18.6409 19.2139H7.86324C7.73331 19.2139 7.6087 19.1626 7.51683 19.0713C7.42496 18.98 7.37334 18.8562 7.37334 18.7271C7.37334 18.598 7.42496 18.4742 7.51683 18.3829C7.6087 18.2916 7.73331 18.2403 7.86324 18.2403H18.6409C18.7708 18.2403 18.8954 18.2916 18.9873 18.3829C19.0792 18.4742 19.1308 18.598 19.1308 18.7271C19.1308 18.8562 19.0792 18.98 18.9873 19.0713C18.8954 19.1626 18.7708 19.2139 18.6409 19.2139ZM18.6409 15.3195H7.86324C7.73331 15.3195 7.6087 15.2682 7.51683 15.1769C7.42496 15.0856 7.37334 14.9618 7.37334 14.8327C7.37334 14.7036 7.42496 14.5798 7.51683 14.4885C7.6087 14.3972 7.73331 14.3459 7.86324 14.3459H18.6409C18.7708 14.3459 18.8954 14.3972 18.9873 14.4885C19.0792 14.5798 19.1308 14.7036 19.1308 14.8327C19.1308 14.9618 19.0792 15.0856 18.9873 15.1769C18.8954 15.2682 18.7708 15.3195 18.6409 15.3195Z" fill="black"/>
</svg>
