<svg width="34" height="40" viewBox="0 0 34 40" fill="none" xmlns="http://www.w3.org/2000/svg">
<path fill-rule="evenodd" clip-rule="evenodd" d="M23.5332 11.2763L23.47 11.2206C23.3488 10.171 22.907 9.07789 22.2182 8.15561C21.0991 6.65754 19.2758 5.51709 16.8336 5.51709C14.4281 5.51709 12.7315 6.76668 11.7311 8.31507C11.2361 9.08124 10.9111 9.92051 10.7515 10.7174C10.7187 10.8812 10.6925 11.0458 10.6732 11.2095L10.5975 11.2763C9.80891 11.9719 9.23039 12.8153 9.36747 13.7826C9.49993 14.7172 10.2416 15.2862 10.9319 15.6341C11.1079 15.7227 11.2973 15.8056 11.4984 15.8827C11.4683 16.1508 11.4528 16.424 11.4528 16.701C11.4528 20.2306 13.9656 23.0918 17.0654 23.0918C20.1651 23.0918 22.678 20.2306 22.678 16.701C22.678 16.424 22.6625 16.1508 22.6323 15.8827C22.8334 15.8056 23.0229 15.7227 23.1988 15.6341C23.8892 15.2862 24.6308 14.7172 24.7633 13.7826C24.9004 12.8153 24.3218 11.9719 23.5332 11.2763ZM12.1155 12.4446C12.0244 12.146 12.0007 11.6662 12.1195 11.0725C12.2356 10.4931 12.4775 9.85844 12.8559 9.27025V11.5085C12.8559 11.9497 13.17 12.3073 13.5575 12.3073C13.945 12.3073 14.2591 11.9497 14.2591 11.5085V7.84234C14.8364 7.4675 15.5345 7.20668 16.3638 7.13481V9.91077C16.3638 10.352 16.6779 10.7096 17.0654 10.7096C17.4529 10.7096 17.7669 10.352 17.7669 9.91077V7.18428C18.5866 7.30989 19.2875 7.59793 19.8717 7.98338V11.5085C19.8717 11.9497 20.1858 12.3073 20.5732 12.3073C20.9607 12.3073 21.2748 11.9497 21.2748 11.5085V9.36611C22.0498 10.4974 22.2316 11.7179 22.0135 12.4503C21.8891 12.8681 22.0858 13.3217 22.4528 13.4633C22.752 13.5789 23.0722 13.4512 23.2475 13.1735C23.3859 13.3933 23.3806 13.5099 23.378 13.5281C23.369 13.5921 23.2614 13.8553 22.6309 14.1731C22.3571 14.3111 22.032 14.435 21.6661 14.544L21.6495 14.5487C21.253 14.6659 20.8118 14.7651 20.3394 14.8458C19.5279 14.9844 18.6244 15.0682 17.697 15.0944C17.4874 15.1003 17.2766 15.1033 17.0654 15.1033C16.6643 15.1033 16.2647 15.0926 15.8721 15.0713C15.1407 15.0318 14.4333 14.9558 13.7849 14.8447C13.315 14.7643 12.876 14.6654 12.4812 14.5487L12.4647 14.544C12.0988 14.435 11.7736 14.3111 11.4998 14.1731C10.8693 13.8553 10.7618 13.5921 10.7527 13.5281C10.7501 13.5099 10.7449 13.3933 10.8832 13.1735C11.0597 13.453 11.3827 13.5801 11.683 13.4614C12.049 13.3167 12.2426 12.8614 12.1155 12.4446ZM12.8714 16.2863C13.1045 16.3383 13.3455 16.3854 13.5928 16.4275C14.342 16.555 15.149 16.6371 15.9697 16.6755C16.3336 16.6925 16.7001 16.701 17.0654 16.701C17.4322 16.701 17.8001 16.6925 18.1654 16.6754C18.9823 16.6369 19.7856 16.5552 20.5317 16.4285C20.7812 16.3862 21.0243 16.3388 21.2593 16.2863C21.2696 16.4229 21.2748 16.5612 21.2748 16.701C21.2748 19.3482 19.3902 21.4941 17.0654 21.4941C14.7406 21.4941 12.8559 19.3482 12.8559 16.701C12.8559 16.5612 12.8612 16.4228 12.8714 16.2863ZM20.5732 23.4829C21.0347 23.5747 21.505 23.6821 21.9764 23.8046C25.7953 24.7973 29.6937 26.7827 29.6937 29.4827V34.2758H4.43701V29.4827C4.43701 26.7827 8.33546 24.7973 12.1543 23.8046C12.6258 23.6821 13.096 23.5747 13.5575 23.4829V27.0861H20.5732V23.4829ZM10.7512 25.8808C11.21 25.7212 11.6806 25.5759 12.1543 25.4457V28.6838H21.9764V25.4457C22.6953 25.6432 23.4066 25.8757 24.0811 26.1396V32.678H25.4843V26.7639C25.6872 26.8669 25.8837 26.9732 26.0725 27.0825C26.8697 27.5442 27.461 28.021 27.836 28.4761C28.2041 28.9229 28.2906 29.253 28.2906 29.4827V32.6781H5.84016V29.4827C5.84016 29.253 5.9266 28.9229 6.29469 28.4761C6.66973 28.021 7.26106 27.5442 8.05826 27.0825C8.45746 26.8514 8.89082 26.6339 9.34804 26.4315V32.678H10.7512V25.8808Z" fill="black"/>
</svg>
