<?xml version="1.0" standalone="no"?>
<!DOCTYPE svg PUBLIC "-//W3C//DTD SVG 20010904//EN"
 "http://www.w3.org/TR/2001/REC-SVG-20010904/DTD/svg10.dtd">
<svg version="1.0" xmlns="http://www.w3.org/2000/svg"
 width="95.000000pt" height="95.000000pt" viewBox="0 0 95.000000 95.000000"
 preserveAspectRatio="xMidYMid meet">
<metadata>
Created by potrace 1.14, written by Peter Selinger 2001-2017
</metadata>
<g transform="translate(0.000000,95.000000) scale(0.100000,-0.100000)"
fill="#000000" stroke="none">
<path d="M361 934 c-157 -42 -282 -173 -326 -341 -56 -213 52 -446 251 -544
66 -33 73 -34 184 -34 109 0 119 2 183 32 162 77 267 248 267 433 -1 129 -49
246 -136 334 -116 116 -273 160 -423 120z m359 -326 c41 -81 78 -150 83 -154
31 -30 -20 -78 -71 -68 -38 8 -40 16 -9 37 l22 16 -64 125 -65 125 -60 -34
c-69 -39 -84 -72 -46 -103 19 -15 21 -26 18 -97 l-3 -80 -160 0 -160 0 -3 37
c-5 58 22 78 103 78 62 0 65 1 65 24 0 14 9 31 19 38 12 9 21 28 23 52 3 37 7
41 73 76 39 20 86 46 105 58 19 12 40 21 45 19 6 -1 44 -69 85 -149z m-139
-258 c26 -14 26 -66 0 -80 -11 -5 -75 -10 -142 -10 -129 0 -159 9 -159 51 0
41 25 49 156 49 69 0 134 -5 145 -10z"/>
</g>
</svg>
