<?xml version="1.0" encoding="UTF-8"?>
<svg version="1.1" viewBox="40 0 600 550" xmlns="http://www.w3.org/2000/svg" xmlns:xlink="http://www.w3.org/1999/xlink">
 <g>
  <path fill="black" d="m587.62 283.92v0c0-0.1875-0.1875-0.375-0.1875-0.375-3.1719-6.9062-7.6523-13.625-13.625-20.16-4.8516-5.2266-10.641-10.266-17.172-15.121-5.7852-4.293-12.32-8.3984-19.227-12.133-6.3477-3.5469-13.441-6.9062-20.719-9.8945-0.1875 0-0.375-0.1875-0.55859-0.1875-6.9062-2.8008-14.188-5.6016-21.84-8.2148-7.6523-2.6133-15.68-4.8516-23.52-6.9062-7.0938-1.8672-14.375-3.5469-22.027-5.0391l-0.003906-52.824c0-1.3086-0.1875-2.4258-0.74609-3.5469-1.4922-3.3594-4.668-5.7852-8.5859-5.7852h-28c-3.9219 0-7.0938 2.4258-8.5859 5.7852-0.55859 1.1211-0.74609 2.4258-0.74609 3.5469v46.105c-3.1719-0.375-6.3477-0.55859-9.5195-0.74609-9.707-0.74609-19.414-1.3086-28.559-1.4922-4.4805-0.1875-9.1484-0.1875-14.188-0.1875-5.6016 0-11.012 0-16.055 0.1875-10.828 0.375-21.652 0.93359-32.105 1.8672-5.0391 0.375-10.266 0.93359-15.309 1.6797v-47.414c0-1.3086-0.1875-2.4258-0.74609-3.5469-1.4922-3.3594-4.668-5.7852-8.5859-5.7852h-29.684c-3.9219 0-7.0938 2.4258-8.5859 5.7852-0.55859 1.1211-0.74609 2.2422-0.74609 3.5469v55.812c-3.1719 0.74609-5.9727 1.4922-8.3984 2.2383h-0.375c-15.309 3.7344-29.68 8.3984-43.867 14.375-0.74609 0.1875-1.3086 0.375-2.0547 0.74609-46.852 19.785-73.922 47.602-75.973 78.398v0.74609 0.55859 0.93359c0 9.1484 2.4258 18.105 6.9062 26.879 3.5469 6.9062 8.3984 13.441 14.375 19.227 2.9883 2.9883 5.9727 5.4141 9.1484 8.0273 2.4258 1.8672 4.8516 3.9219 7.4648 6.3477 0.375 0.375 0.93359 0.74609 1.4922 1.1211 5.6016 3.7344 11.945 7.6523 18.852 11.387 0.55859 0.375 1.3086 0.55859 2.0547 0.74609 2.9883 0.93359 6.3477 2.6133 9.8945 4.293 2.9883 1.4922 5.9727 2.9883 9.332 4.293 6.3477 2.6133 12.691 4.668 19.414 6.7188l3.1719 0.93359c7.6523 2.4258 15.68 4.668 23.707 6.7188 3.1719 0.74609 6.3477 1.4922 9.5195 2.2383 1.4922 0.93359 3.1719 1.4922 4.8516 1.4922h0.93359c6.7188 1.3086 14.188 2.6133 21.281 3.7344 0.375 0 0.55859 0.1875 0.93359 0.1875h0.1875c0.375 0 0.93359 0.1875 1.3086 0.1875 1.4922 0.93359 3.3594 1.6797 5.2266 1.6797 0.93359 0 1.8672-0.1875 2.8008-0.375 4.293 0.55859 8.2148 1.1211 11.945 1.4922 1.1211 0.55859 2.4258 0.93359 3.9219 0.93359h5.0391c3.7344 0.375 7.2812 0.55859 10.641 0.93359 9.332 0.74609 19.039 0.93359 28.746 1.1211l0.1875-0.1875c3.1719 0 6.1602 0.1875 9.332 0.1875 7.0938 0 14.188 0 20.906-0.375 9.332-0.375 18.668-0.93359 28.188-1.6797h12.508c2.0547 0 4.1055-0.74609 5.6016-1.8672 2.0547-0.375 4.293-0.55859 6.3477-0.93359h0.375c1.1211-0.1875 2.0547-0.375 2.9883-0.375 3.5469-0.55859 7.2812-1.1211 11.199-1.8672h0.375c1.1211-0.1875 2.4258-0.375 3.5469-0.55859 11.945-2.2383 23.707-4.8516 35.094-7.8398 17.547-4.8516 33.414-10.453 47.602-16.988 0.1875 0 0.1875-0.1875 0.375-0.1875 39.945-18.48 63.094-42.375 67.012-69.066 0.375-2.6133 0.55859-5.2266 0.55859-7.8398-0.007812-8.5742-1.6875-16.227-5.0508-23.691zm-122.27 100.61 100.8-100.8c0.375 0.55859 0.93359 1.3086 1.3086 1.8672l-97.812 97.812c-1.3086 0.37109-2.8047 0.74609-4.2969 1.1211zm8.5859-153.44-25.012 25.012v-3.1719l22.398-22.398c0.93359 0.18359 1.6797 0.37109 2.6133 0.55859zm22.402 7.0938-47.414 47.414v-3.1719l45.172-45.172c0.74609 0.36719 1.4961 0.74219 2.2422 0.92969zm21.094 8.5859-68.508 68.508v-3.1719l66.266-66.266c0.74609 0.37109 1.4922 0.74219 2.2422 0.92969zm19.227 10.453-87.734 87.734v-3.1719l85.68-85.68c0.74609 0.18359 1.4922 0.74219 2.0547 1.1172zm-87.734-30.801v-1.4922c0.375 0 0.74609 0.1875 1.1211 0.1875zm0 144.86 103.04-103.04c0.55859 0.55859 1.1211 0.93359 1.6797 1.4922l-104.72 104.91zm125.07-65.707v1.1211 2.2383l-58.613 58.613c-1.8672 0.93359-3.7344 1.6797-5.7852 2.4258zm-143.73 86.051c-2.9883 0.55859-5.7852 0.93359-8.5859 1.3086h-0.1875-0.375l0.003906-12.133v-218.4h9.332v229.23zm-57.867 4.1094h-70.746c-2.0547-0.1875-4.1055-0.375-6.1602-0.55859-2.8008-0.375-5.9727-0.55859-9.1484-1.1211l0.003906-3.9219h115.73v5.2266c-1.3086 0.1875-2.6133 0.1875-4.1055 0.375zm-142.8-12.508 8.3984-8.3984v3.1719l-5.7852 5.7852c-0.75-0.18359-1.6797-0.37109-2.6133-0.55859zm-22.773-6.9062 31.172-30.988v3.1719l-28.746 28.746c-0.74609-0.37109-1.4922-0.55859-2.4258-0.92969zm-41.066-18.105 72.238-72.242v3.1719l-70.188 70.188c-0.74609-0.18359-1.4922-0.55859-2.0508-1.1172zm-39.762-49.094 66.453-66.453c1.8672-0.74609 3.5469-1.4922 5.4141-2.2383l-71.492 71.492c-0.1875-0.93359-0.1875-1.8672-0.375-2.8008zm8.2148 21.465 102.11-102.11c0.55859-0.1875 1.1211-0.375 1.6797-0.55859v2.0547l-102.48 102.48c-0.37109-0.5625-0.93359-1.3086-1.3047-1.8711zm15.117 15.867c-0.1875-0.1875-0.55859-0.375-0.74609-0.55859l89.414-89.414v3.1719l-87.547 87.547c-0.375-0.1875-0.74609-0.55859-1.1211-0.74609zm36.215 21.652 52.453-52.453v3.1719l-50.215 50.215c-0.74609-0.37109-1.4922-0.74609-2.2383-0.93359zm185.17-151.95-7.4648 7.8398h-3.1719l7.6523-7.8398c0.93359 0.1875 1.8672 0 2.9844 0zm27.816 1.8672-5.6016 5.9727h-3.1719l5.9727-6.1602c0.74609 0.1875 1.8672 0 2.8008 0.1875zm-15.121 106.77h-29.492-0.1875-29.492-0.1875-29.492-0.1875-7.8398v-2.4258-0.1875-6.7227h115.73v9.332zm-73.922-72.801h-22.957v-9.332h115.73v9.332zm36.215 44.801 26.879-26.133h3.1719l-26.879 26.133zm0.55859-26.133-26.879 26.133h-3.1719l26.879-26.133zm32.293 26.133h-3.1719l26.879-26.133v2.4258zm-61.973-26.133-26.879 26.133h-3.1719l26.879-26.133zm-30.051-0.74609h0.375l-0.375 0.375zm0 86.051 11.945-12.508h3.1719l-15.121 15.68zm14.184 15.492 27.254-28h3.1719l-27.254 28zm29.68 0 27.254-28h3.1719l-27.254 28zm29.496 0 27.254-28h3.1719l-27.254 28zm29.68 0 12.691-12.691v3.1719l-9.5195 9.5195zm-56-147.46h-3.1719l7.8398-8.2148c1.1211 0 2.2383 0.1875 3.3594 0.1875zm-29.496 0h-3.1719l6.1602-6.5352c1.1211-0.1875 2.4258 0 3.5469-0.1875zm-36.211 156.8v10.641c-3.7344-0.55859-7.4648-1.3086-11.199-2.0547v-170.61c0.375-1.3086 0.55859-2.4258 0.375-3.9219 0-0.375-0.1875-0.74609-0.375-1.1211v-51.332h11.199z"/>
  <use x="70" y="588" xlink:href="#h"/>
  <use x="76.851562" y="588" xlink:href="#b"/>
  <use x="81.453125" y="588" xlink:href="#a"/>
  <use x="87.78125" y="588" xlink:href="#l"/>
  <use x="94.082031" y="588" xlink:href="#d"/>
  <use x="98.542969" y="588" xlink:href="#a"/>
  <use x="104.871094" y="588" xlink:href="#k"/>
  <use x="114.804688" y="588" xlink:href="#e"/>
  <use x="121.484375" y="588" xlink:href="#j"/>
  <use x="130.816406" y="588" xlink:href="#i"/>
  <use x="137.539062" y="588" xlink:href="#a"/>
  <use x="143.867188" y="588" xlink:href="#e"/>
  <use x="153.800781" y="588" xlink:href="#h"/>
  <use x="160.648438" y="588" xlink:href="#c"/>
  <use x="167.0625" y="588" xlink:href="#b"/>
  <use x="171.664062" y="588" xlink:href="#g"/>
  <use x="178.308594" y="588" xlink:href="#a"/>
  <use x="184.640625" y="588" xlink:href="#v"/>
  <use x="187.835938" y="588" xlink:href="#u"/>
  <use x="191.039062" y="588" xlink:href="#f"/>
  <use x="197.679688" y="588" xlink:href="#t"/>
  <use x="70" y="597.332031" xlink:href="#s"/>
  <use x="74.0625" y="597.332031" xlink:href="#b"/>
  <use x="78.664062" y="597.332031" xlink:href="#c"/>
  <use x="85.074219" y="597.332031" xlink:href="#r"/>
  <use x="98.050781" y="597.332031" xlink:href="#d"/>
  <use x="102.511719" y="597.332031" xlink:href="#q"/>
  <use x="109.15625" y="597.332031" xlink:href="#a"/>
  <use x="118.734375" y="597.332031" xlink:href="#p"/>
  <use x="126.546875" y="597.332031" xlink:href="#c"/>
  <use x="132.960938" y="597.332031" xlink:href="#f"/>
  <use x="139.601562" y="597.332031" xlink:href="#g"/>
  <use x="149.496094" y="597.332031" xlink:href="#o"/>
  <use x="156.335938" y="597.332031" xlink:href="#b"/>
  <use x="160.941406" y="597.332031" xlink:href="#c"/>
  <use x="167.351562" y="597.332031" xlink:href="#n"/>
  <use x="170.550781" y="597.332031" xlink:href="#a"/>
  <use x="176.882812" y="597.332031" xlink:href="#m"/>
  <use x="182.414062" y="597.332031" xlink:href="#d"/>
 </g>
</svg>
