<svg width="98" height="93" viewBox="0 0 98 93" fill="none" xmlns="http://www.w3.org/2000/svg">
<path d="M95.3384 6.17578L72.4414 43.6789L71.0836 42.9353C68.8796 41.7277 66.24 42.5369 64.8031 44.5303L63.1343 46.8463C58.4997 46.076 53.7277 46.675 49.4636 48.5622C45.1995 50.4495 41.649 53.5339 39.2922 57.3984C37.7838 59.8776 36.8047 62.6145 36.411 65.4528C36.0172 68.2911 36.2165 71.1752 36.9975 73.9404C37.7785 76.7056 39.1258 79.2977 40.9625 81.5687C42.7992 83.8398 45.0894 85.7452 47.7021 87.1761C52.9778 90.0654 59.2467 90.8477 65.1301 89.3511C71.0134 87.8544 76.0295 84.2013 79.0748 79.1953C81.4517 75.2795 82.4873 70.7593 82.0383 66.2604C81.5893 61.7615 79.6779 57.5063 76.5686 54.0835L78.064 51.796C79.4064 49.7441 78.5872 47.0491 76.3832 45.8416L75.0972 45.1377L97.9882 7.63458L95.3384 6.17578ZM13.3926 33.1381L11.8613 35.6526L38.3831 50.1839L39.9143 47.6693L13.3926 33.1381ZM3.49329 37.7812L1.96204 40.3015L23.1782 51.9265L24.7095 49.4062L3.49329 37.7812ZM1.54932 46.7838L0.0180664 49.3041L5.32361 52.2103L6.85486 49.6901L1.54932 46.7838ZM27.3652 50.8594L25.834 53.3796L31.1335 56.2859L32.6648 53.7656L27.3652 50.8594ZM12.1604 52.5963L10.6292 55.1166L29.1956 65.2885L30.7268 62.7682L12.1604 52.5963ZM44.52 58.8345C44.5539 58.8335 44.5878 58.8335 44.6217 58.8345C44.8797 58.8372 45.1327 58.9016 45.3574 59.0219C45.5356 59.1166 45.6921 59.2443 45.8175 59.3973C45.9429 59.5504 46.0348 59.7257 46.0878 59.9129C46.1407 60.1002 46.1537 60.2956 46.1258 60.4876C46.098 60.6797 46.0299 60.8645 45.9257 61.0312C43.8948 64.3694 43.3432 68.3373 44.3944 72.0602C45.4457 75.7834 48.0187 78.954 51.5363 80.8812C51.7188 80.9723 51.88 81.0975 52.0103 81.2491C52.1405 81.4008 52.2372 81.5759 52.2944 81.7639C52.3516 81.952 52.3683 82.149 52.3433 82.3432C52.3183 82.5375 52.2523 82.725 52.1491 82.8944C52.0459 83.0638 51.9077 83.2118 51.7429 83.3293C51.578 83.4468 51.3898 83.5315 51.1895 83.5783C50.9893 83.6252 50.7812 83.6331 50.5776 83.6017C50.3741 83.5704 50.1793 83.5003 50.005 83.3958C45.7851 81.0838 42.6948 77.2761 41.4336 72.8095C40.1724 68.3429 40.8395 63.5826 43.2759 59.5781C43.4009 59.3651 43.5803 59.1853 43.7978 59.0554C44.0152 58.9254 44.2636 58.8495 44.52 58.8345Z" fill="black"/>
</svg>
