<svg width="37" height="28" viewBox="0 0 37 28" fill="none" xmlns="http://www.w3.org/2000/svg">
<g clip-path="url(#clip0_52_299)">
<path d="M20.762 0C22.2571 0 23.4701 1.15678 23.4701 2.58378V5.16756H26.3306C27.2897 5.16756 28.1585 5.52822 28.8863 6.17416L33.2475 10.3351C33.9245 10.9811 34.3025 11.8585 34.3025 12.7736V18.9477C35.3011 18.9477 36.1079 19.7175 36.1079 20.6703C36.1079 21.623 35.3011 22.3928 34.3025 22.3928H32.4971C32.4971 25.2457 30.0711 27.5603 27.0809 27.5603C24.04 27.5603 21.6647 25.2457 21.6647 22.3928H14.4432C14.4432 25.2457 12.0172 27.5603 9.02698 27.5603C5.98601 27.5603 3.61079 25.2457 3.61079 22.3928H2.70809C1.21244 22.3928 0 21.2355 0 19.809V2.58378C0 1.15678 1.21244 0 2.70809 0H20.762ZM23.4701 8.61261V13.7802H30.6917V12.7736L26.3306 8.61261H23.4701ZM9.02698 19.809C7.53188 19.809 6.31888 20.9663 6.31888 22.3928C6.31888 23.8192 7.53188 24.9766 9.02698 24.9766C10.5221 24.9766 11.7351 23.8192 11.7351 22.3928C11.7351 20.9663 10.5221 19.809 9.02698 19.809ZM27.0809 24.9766C28.576 24.9766 29.789 23.8192 29.789 22.3928C29.789 20.9663 28.576 19.809 27.0809 19.809C25.5858 19.809 24.3728 20.9663 24.3728 22.3928C24.3728 23.8192 25.5858 24.9766 27.0809 24.9766Z" fill="black"/>
</g>
<defs>
<clipPath id="clip0_52_299">
<rect width="36.1079" height="27.5603" fill="white"/>
</clipPath>
</defs>
</svg>
