<svg width="701" height="416" viewBox="0 0 701 416" fill="none" xmlns="http://www.w3.org/2000/svg">
<path d="M560.667 361.667H438.516C464.985 393.631 505.276 410.817 546.667 407.807C588.057 404.796 625.432 381.952 647 346.5L566.969 361.667C564.87 361.828 562.766 361.828 560.667 361.667H560.667Z" fill="black"/>
<path d="M566.733 198.92L646.999 213.504C625.431 178.051 588.056 155.207 546.665 152.197C505.275 149.187 464.983 166.375 438.515 198.337H560.665C562.702 198.358 564.728 198.551 566.733 198.921L566.733 198.92Z" fill="black"/>
<path d="M668.12 241.026L563.12 221.89L560.672 221.661H362.339C353.058 221.661 344.151 225.349 337.589 231.911C331.028 238.474 327.339 247.38 327.339 256.66V303.327C327.324 309.483 328.975 315.535 332.121 320.827C338.36 331.629 349.87 338.296 362.339 338.327H562.766L667.766 319.191C680.105 317.05 690.698 309.191 696.329 298.008C701.959 286.821 701.959 273.634 696.329 262.446C690.698 251.258 680.105 243.404 667.766 241.258L668.12 241.026ZM560.672 291.662H514.005C507.563 291.662 502.339 286.438 502.339 279.996C502.339 273.553 507.563 268.329 514.005 268.329H560.672C567.115 268.329 572.339 273.553 572.339 279.996C572.339 286.438 567.115 291.662 560.672 291.662Z" fill="black"/>
<path d="M175.667 309.16C175.667 318.826 167.833 326.66 158.167 326.66C148.5 326.66 140.667 318.826 140.667 309.16C140.667 299.493 148.5 291.66 158.167 291.66C167.833 291.66 175.667 299.493 175.667 309.16Z" fill="black"/>
<path d="M158.16 210C131.868 210.031 106.665 220.49 88.072 239.079C69.484 257.672 59.0253 282.876 58.9933 309.167C58.8579 311.344 58.8579 313.526 58.9933 315.698C58.8683 351.13 77.6546 383.933 108.275 401.755C138.895 419.578 176.696 419.714 207.441 402.104C238.187 384.5 257.201 351.828 257.327 316.401C257.499 313.99 257.499 311.573 257.327 309.167C257.295 282.875 246.837 257.672 228.248 239.079C209.655 220.491 184.451 210.032 158.16 210V210ZM158.16 350C147.332 350 136.947 345.698 129.285 338.042C121.629 330.38 117.327 319.995 117.327 309.167C117.327 298.339 121.629 287.954 129.285 280.292C136.947 272.636 147.332 268.334 158.16 268.334C168.988 268.334 179.373 272.636 187.035 280.292C194.691 287.954 198.993 298.339 198.993 309.167C198.993 319.995 194.691 330.38 187.035 338.042C179.373 345.698 168.988 350 158.16 350Z" fill="black"/>
<path d="M362.333 198.333H385.667C388.76 198.333 391.729 197.104 393.917 194.917C396.104 192.729 397.333 189.76 397.333 186.667V128.333C397.5 127.135 397.5 125.917 397.333 124.719L363.849 23.3333H397.333C403.776 23.3333 409 18.1093 409 11.6667C409 5.224 403.776 0 397.333 0H199C192.557 0 187.333 5.224 187.333 11.6667C187.333 18.1093 192.557 23.3333 199 23.3333H222.333L212.182 116.667C192.13 117.109 172.188 119.687 152.682 124.365V81.6672C152.682 78.5735 151.453 75.6047 149.266 73.4172C147.078 71.2297 144.109 70.0005 141.016 70.0005H117.333C110.89 70.0005 105.666 75.2245 105.666 81.6672C105.666 88.1099 110.89 93.3339 117.333 93.3339H129V130.902C80.5209 146.881 37.2075 175.563 3.58354 213.97C1.7086 216.095 0.67207 218.834 0.66687 221.668V315.001C0.66687 318.095 1.89604 321.064 4.08354 323.251C6.27103 325.439 9.2398 326.668 12.3335 326.668H37.0682C37.0682 323.751 36.3703 320.834 36.1359 317.918C35.938 315.006 35.938 312.079 36.1359 309.168C36.1359 265.402 59.4799 224.965 97.3866 203.08C135.288 181.2 181.98 181.2 219.887 203.08C257.788 224.965 281.137 265.402 281.137 309.168C281.174 312.366 280.981 315.564 280.554 318.735C280.554 321.418 280.554 323.985 279.736 326.668H309.372H309.367C305.987 319.345 304.159 311.402 304.002 303.334V256.668C304.002 241.198 310.148 226.361 321.085 215.417C332.028 204.48 346.866 198.334 362.336 198.334L362.333 198.333ZM315.667 175H234V151.667H315.667V175ZM339 23.3332L374 130.197V175H339V23.3332ZM315.667 23.3332V128.333H234L245.667 23.3332H315.667Z" fill="black"/>
</svg>
