<svg width="125" height="82" viewBox="0 0 125 82" fill="none" xmlns="http://www.w3.org/2000/svg">
<path d="M23.4453 78.1562C22.8816 78.1569 22.3244 78.0774 21.8119 77.9234C21.2994 77.7693 20.8438 77.5444 20.4764 77.2639C20.109 76.9834 19.8385 76.6541 19.6834 76.2986C19.5283 75.9431 19.4924 75.5697 19.5781 75.2042L35.2031 8.57925C35.3853 7.92259 35.9509 7.33849 36.7796 6.9512C37.6082 6.56392 38.6345 6.40401 39.6402 6.5055C40.6458 6.60699 41.5514 6.96187 42.1642 7.49464C42.7771 8.02741 43.0489 8.69603 42.9219 9.35825L27.2969 75.9833C27.1553 76.5872 26.6893 77.1381 25.9831 77.5366C25.2768 77.935 24.3768 78.1548 23.4453 78.1562ZM101.555 78.1562C100.623 78.1548 99.7231 77.935 99.0169 77.5366C98.3106 77.1381 97.8447 76.5872 97.7031 75.9833L82.0781 9.35825C81.951 8.69603 82.2228 8.02741 82.8357 7.49464C83.4486 6.96187 84.3542 6.60699 85.3598 6.5055C86.3654 6.40401 87.3917 6.56392 88.2204 6.9512C89.049 7.33849 89.6146 7.92259 89.7969 8.57925L105.422 75.2042C105.508 75.5697 105.472 75.9431 105.317 76.2986C105.162 76.6541 104.891 76.9834 104.524 77.2639C104.156 77.5444 103.701 77.7693 103.188 77.9234C102.676 78.0774 102.118 78.1569 101.555 78.1562ZM58.5937 8.96875C58.5937 8.28913 59.0053 7.63735 59.7378 7.15679C60.4704 6.67623 61.464 6.40625 62.5 6.40625C63.536 6.40625 64.5296 6.67623 65.2621 7.15679C65.9947 7.63735 66.4062 8.28913 66.4062 8.96875V14.0938C66.4062 14.7734 65.9947 15.4251 65.2621 15.9057C64.5296 16.3863 63.536 16.6562 62.5 16.6562C61.464 16.6562 60.4704 16.3863 59.7378 15.9057C59.0053 15.4251 58.5937 14.7734 58.5937 14.0938V8.96875ZM58.5937 24.3438C58.5937 23.6641 59.0053 23.0124 59.7378 22.5318C60.4704 22.0512 61.464 21.7812 62.5 21.7812C63.536 21.7812 64.5296 22.0512 65.2621 22.5318C65.9947 23.0124 66.4062 23.6641 66.4062 24.3438V29.4688C66.4062 30.1484 65.9947 30.8001 65.2621 31.2807C64.5296 31.7613 63.536 32.0312 62.5 32.0312C61.464 32.0312 60.4704 31.7613 59.7378 31.2807C59.0053 30.8001 58.5937 30.1484 58.5937 29.4688V24.3438ZM58.5937 39.7188C58.5937 39.0391 59.0053 38.3874 59.7378 37.9068C60.4704 37.4262 61.464 37.1562 62.5 37.1562C63.536 37.1562 64.5296 37.4262 65.2621 37.9068C65.9947 38.3874 66.4062 39.0391 66.4062 39.7188V44.8438C66.4062 45.5234 65.9947 46.1752 65.2621 46.6557C64.5296 47.1363 63.536 47.4062 62.5 47.4062C61.464 47.4062 60.4704 47.1363 59.7378 46.6557C59.0053 46.1752 58.5937 45.5234 58.5937 44.8438V39.7188ZM58.5937 55.0938C58.5937 54.4141 59.0053 53.7623 59.7378 53.2818C60.4704 52.8012 61.464 52.5312 62.5 52.5312C63.536 52.5312 64.5296 52.8012 65.2621 53.2818C65.9947 53.7623 66.4062 54.4141 66.4062 55.0938V60.2188C66.4062 60.8984 65.9947 61.5502 65.2621 62.0307C64.5296 62.5113 63.536 62.7812 62.5 62.7812C61.464 62.7812 60.4704 62.5113 59.7378 62.0307C59.0053 61.5502 58.5937 60.8984 58.5937 60.2188V55.0938ZM58.5937 69.1875C58.5937 68.5079 59.0053 67.8561 59.7378 67.3755C60.4704 66.895 61.464 66.625 62.5 66.625C63.536 66.625 64.5296 66.895 65.2621 67.3755C65.9947 67.8561 66.4062 68.5079 66.4062 69.1875V74.3125C66.4062 74.9921 65.9947 75.6439 65.2621 76.1245C64.5296 76.605 63.536 76.875 62.5 76.875C61.464 76.875 60.4704 76.605 59.7378 76.1245C59.0053 75.6439 58.5937 74.9921 58.5937 74.3125V69.1875Z" fill="black"/>
</svg>
