<?xml version="1.0" encoding="UTF-8"?>
<svg width="700pt" height="700pt" version="1.1" viewBox="20 0 600 550" xmlns="http://www.w3.org/2000/svg" xmlns:xlink="http://www.w3.org/1999/xlink">
 <g>
  <path d="m596.96 284.48-57.68-7.8398-33.039-57.68c-8.9609-15.68-25.762-25.199-43.68-25.199h-63.281c-6.1602 0-11.199 5.0391-11.199 11.199v114.8c0 6.1602-5.0391 11.199-11.199 11.199h-281.68c-6.1602 0-11.199 5.0391-11.199 11.199v34.16c0 6.1602 5.0391 11.199 11.199 11.199h25.199c2.2383 25.762 23.52 45.922 49.84 45.922 26.32 0 47.602-20.16 49.84-45.922h259.84c2.2383 25.762 23.52 45.922 49.84 45.922 26.32 0 47.602-20.16 49.84-45.922h15.121c12.32 0 22.398-10.078 22.398-22.398l0.003906-58.242c-1.1211-11.199-9.5195-20.719-20.16-22.398zm-426.72 124.88c-14.559 0-26.32-11.762-26.32-26.32 0-14.559 11.762-26.32 26.32-26.32 14.559 0 26.32 11.762 26.32 26.32 0 14.562-12.32 26.32-26.32 26.32zm253.68-133.84v-50.398h38.078c6.7188 0 12.879 3.9219 16.238 9.5195l23.52 40.879zm104.72 133.84c-14.559 0-26.32-11.762-26.32-26.32 0-14.559 11.762-26.32 26.32-26.32s26.32 11.762 26.32 26.32c0 14.562-11.762 26.32-26.32 26.32z"/>
  <path d="m95.199 315.28h266c6.1602 0 11.199-5.0391 11.199-11.199v-165.76c0-6.1602-5.0391-11.199-11.199-11.199h-266c-6.1602 0-11.199 5.0391-11.199 11.199v165.76c0 6.1562 5.0391 11.199 11.199 11.199z"/>
  <use x="70" y="644" xlink:href="#h"/>
  <use x="90.550781" y="644" xlink:href="#c"/>
  <use x="104.359375" y="644" xlink:href="#a"/>
  <use x="123.347656" y="644" xlink:href="#l"/>
  <use x="142.242188" y="644" xlink:href="#b"/>
  <use x="155.628906" y="644" xlink:href="#a"/>
  <use x="174.617188" y="644" xlink:href="#e"/>
  <use x="204.410156" y="644" xlink:href="#k"/>
  <use x="224.453125" y="644" xlink:href="#j"/>
  <use x="252.453125" y="644" xlink:href="#i"/>
  <use x="274.121094" y="644" xlink:href="#e"/>
  <use x="294.164062" y="644" xlink:href="#c"/>
  <use x="307.972656" y="644" xlink:href="#u"/>
  <use x="317.570312" y="644" xlink:href="#a"/>
  <use x="336.5625" y="644" xlink:href="#g"/>
  <use x="366.242188" y="644" xlink:href="#h"/>
  <use x="386.789062" y="644" xlink:href="#d"/>
  <use x="406.027344" y="644" xlink:href="#t"/>
  <use x="426.070312" y="644" xlink:href="#f"/>
  <use x="446.003906" y="644" xlink:href="#a"/>
  <use x="464.992187" y="644" xlink:href="#b"/>
  <use x="70" y="672" xlink:href="#s"/>
  <use x="82.183594" y="672" xlink:href="#c"/>
  <use x="95.992188" y="672" xlink:href="#d"/>
  <use x="115.226562" y="672" xlink:href="#r"/>
  <use x="154.152344" y="672" xlink:href="#b"/>
  <use x="167.535156" y="672" xlink:href="#q"/>
  <use x="187.46875" y="672" xlink:href="#a"/>
  <use x="216.207031" y="672" xlink:href="#p"/>
  <use x="239.640625" y="672" xlink:href="#d"/>
  <use x="258.878906" y="672" xlink:href="#f"/>
  <use x="278.8125" y="672" xlink:href="#g"/>
  <use x="308.492188" y="672" xlink:href="#o"/>
  <use x="329.015625" y="672" xlink:href="#c"/>
  <use x="342.820312" y="672" xlink:href="#d"/>
  <use x="362.058594" y="672" xlink:href="#n"/>
  <use x="371.65625" y="672" xlink:href="#a"/>
  <use x="390.648438" y="672" xlink:href="#m"/>
  <use x="407.242188" y="672" xlink:href="#b"/>
 </g>
</svg>
