<svg width="229" height="81" viewBox="0 0 229 81" fill="none" xmlns="http://www.w3.org/2000/svg">
<g clip-path="url(#clip0_136_2316)">
<path d="M187.995 22.3554V24.1855H190.343V22.3554H187.995Z" fill="black" stroke="black" stroke-width="0.72858"/>
<path d="M192.631 24.3078L195.677 20.3362C196.369 19.5517 197.649 18.2013 199.761 18.0254H213.955C215.657 18.0989 216.841 19.2811 217.131 20.9138L217.4 24.3794" fill="#F0F0F0"/>
<path d="M192.631 24.3078L195.677 20.3362C196.369 19.5517 197.649 18.2013 199.761 18.0254H213.955C215.657 18.0989 216.841 19.2811 217.131 20.9138L217.4 24.3794" stroke="black" stroke-width="0.72858"/>
<path d="M149.529 52.4736V59.9111H183.428V52.4014L149.529 52.4736Z" fill="#F0F0F0" stroke="black" stroke-width="0.72858"/>
<path d="M140.713 53.1162H226.01C227.271 53.0887 228.679 52.4856 228.732 49.5059C228.249 41.8035 227.468 34.1009 226.01 26.3986C225.928 25.2899 224.916 24.1929 223.029 24.3767H146.028C143.737 32.368 138.956 37.237 139.157 48.3504C138.983 49.9936 139.444 52.6955 140.713 53.1161L140.713 53.1162Z" fill="#F0F0F0" stroke="black" stroke-width="0.72858"/>
<path d="M221.023 24.4307V53.0259" stroke="black" stroke-width="0.72858"/>
<path d="M139.158 48.3398H220.976" stroke="black" stroke-width="0.72858"/>
<path d="M61.0876 71.2092L90.5625 79.1935L91.0208 77.049L61.4113 69.0068L61.0876 71.2092Z" fill="#F0F0F0" stroke="black" stroke-width="0.72858"/>
<path d="M99.7489 59.2393C99.5462 63.9459 101.609 66.2047 99.4897 69.5652L94.4339 77.0389C92.3895 81.2851 89.0751 82.446 88.3411 77.2556L82.605 70.6123L99.7489 59.2393Z" fill="#F0F0F0" stroke="black" stroke-width="0.72858"/>
<path d="M29.7194 59.79L61.6702 68.2121L60.9896 71.967L27.4148 62.7964L29.7194 59.79Z" fill="#F0F0F0" stroke="black" stroke-width="0.72858"/>
<path d="M13.0364 55.626L26.4652 62.7745C28.8194 63.9876 29.314 61.4186 30.2692 60.1193L30.59 59.43" fill="#F0F0F0"/>
<path d="M13.0364 55.626L26.4652 62.7745C28.8194 63.9876 29.314 61.4186 30.2692 60.1193L30.59 59.43" stroke="black" stroke-width="0.72858"/>
<path d="M40.3293 22.3486L1.83008 38.4326L2.60921 40.1687L41.0177 23.9824L40.3293 22.3486Z" fill="#F0F0F0" stroke="black" stroke-width="0.72858"/>
<path d="M1.7477 37.4112L20.739 36.1475C22.6262 36.2105 24.1657 36.0446 27.8689 37.3029L90.6574 66.8606L89.3084 72.1621L11.9143 55.4469L0.747907 40.9818C0.0445615 40.128 -0.08608 37.8392 1.74847 37.4112L1.7477 37.4112Z" fill="#F0F0F0" stroke="black" stroke-width="0.72858"/>
<path d="M82.8982 3.55078L39.9885 21.3865L41.1228 25.0691L83.7769 6.74112L82.8982 3.55078Z" fill="#F0F0F0" stroke="black" stroke-width="0.72858"/>
<path d="M101.491 1.37695C95.533 1.84505 91.5421 1.85645 83.6166 2.78113C81.5025 3.60378 81.6754 6.78154 81.8063 9.21479" fill="#F0F0F0"/>
<path d="M101.491 1.37695C95.533 1.84505 91.5421 1.85645 83.6166 2.78113C81.5025 3.60378 81.6754 6.78154 81.8063 9.21479" stroke="black" stroke-width="0.72858"/>
<path d="M139.677 28.5019C129.484 24.8612 122.198 18.0685 100.205 22.1475L40.6397 38.5392L34.7415 41.211L23.8523 42.2219C21.8688 42.4659 20.2003 40.3792 22.3393 38.0972L31.8897 31.0292L37.5934 29.0074L95.6032 3.01166C105.994 -0.568711 115.418 -0.541451 122.372 2.86717L142.66 14.6372L139.677 28.5019Z" fill="#F0F0F0" stroke="black" stroke-width="0.72858"/>
<path d="M139.419 42.6765L113.844 19.6993L115.944 16.9395L141.273 39.9983L139.419 42.6765Z" fill="#F0F0F0" stroke="black" stroke-width="0.72858"/>
<path d="M163.398 34.9312C172.604 32.398 176.823 31.4246 177.787 24.3885C177.403 18.7199 176.671 13.0516 174.967 7.383C174.24 5.4921 170.999 5.05747 170.916 5.21673H146.772C144.251 5.4093 142.892 7.72393 142.67 8.9419C138.256 24.2578 138.291 35.7281 139.156 48.3612C143.709 41.0422 147.721 40.2814 163.398 34.93V34.9312Z" fill="#F0F0F0" stroke="black" stroke-width="0.72858"/>
<path d="M161.086 35.6966L161.094 8.67188H146.978C145.4 8.73494 144.447 9.81903 143.907 11.5823C138.996 27.8754 140.545 37.9035 141.111 45.5369C147.611 39.891 149.946 39.5848 161.086 35.6958L161.086 35.6966Z" fill="#F0F0F0" stroke="black" stroke-width="0.72858"/>
<path d="M164.282 34.686V9.94727H170.584V32.8096C168.066 33.6698 165.376 34.3549 164.282 34.6861V34.686Z" fill="#F0F0F0" stroke="black" stroke-width="0.72858"/>
<path d="M88.4711 65.7603L86.3322 52.9071C85.8923 50.57 84.9084 48.637 83.7395 46.8414L77.5172 39.1872L74.9894 39.3317L71.0356 36.3711L79.2672 36.5878L84.9709 38.1043L95.5361 39.5485C96.9383 39.8608 101.878 43.4059 102.407 48.6471L102.677 52.2146C102.562 52.7913 102.908 53.8494 101.944 55.6245L92.2304 72.5485L89.3062 72.1691C87.8959 71.6855 85.0043 69.4363 88.471 65.7609L88.4711 65.7603Z" fill="#F0F0F0" stroke="black" stroke-width="0.72858"/>
<path d="M90.1584 70.8349C90.9291 70.8349 91.5538 70.1388 91.5538 69.2802C91.5538 68.4216 90.9291 67.7256 90.1584 67.7256C89.3877 67.7256 88.7629 68.4216 88.7629 69.2802C88.7629 70.1388 89.3877 70.8349 90.1584 70.8349Z" fill="#F0F0F0" stroke="black" stroke-width="0.72858" stroke-linejoin="round"/>
<path d="M96.0061 65.7603L84.5173 38.0498" stroke="black" stroke-width="0.72858"/>
<path d="M90.892 79.5458C91.5647 79.5458 92.1099 78.9383 92.1099 78.1889C92.1099 77.4395 91.5647 76.832 90.892 76.832C90.2194 76.832 89.6741 77.4395 89.6741 78.1889C89.6741 78.9383 90.2194 79.5458 90.892 79.5458Z" fill="#F0F0F0" stroke="black" stroke-width="0.72858" stroke-linejoin="round"/>
<path d="M23.7423 41.2167C24.415 41.2167 24.9603 40.6092 24.9603 39.8598C24.9603 39.1104 24.415 38.5029 23.7423 38.5029C23.0697 38.5029 22.5244 39.1104 22.5244 39.8598C22.5244 40.6092 23.0697 41.2167 23.7423 41.2167Z" fill="#F0F0F0" stroke="black" stroke-width="0.72858" stroke-linejoin="round"/>
<path d="M2.28898 40.8798C2.96162 40.8798 3.50691 40.2723 3.50691 39.5229C3.50691 38.7735 2.96162 38.166 2.28898 38.166C1.61633 38.166 1.07104 38.7735 1.07104 39.5229C1.07104 40.2723 1.61633 40.8798 2.28898 40.8798Z" fill="#F0F0F0" stroke="black" stroke-width="0.72858" stroke-linejoin="round"/>
<path d="M136.305 61.1978H119.712C107.548 61.9226 109.504 79.7331 119.712 79.5393H210.456C222.017 79.2717 220.455 60.8733 210.456 61.4868H192.696C188.827 61.7424 183.33 58.0699 178.955 58.454H152.77C147.911 58.318 141.45 61.2408 136.306 61.198L136.305 61.1978Z" fill="#F0F0F0" stroke="black" stroke-width="3.46084"/>
<path d="M126.517 61.5039V79.1955" stroke="black" stroke-width="0.72858"/>
<path d="M162.62 5.23438V48.3029" stroke="black" stroke-width="0.72858"/>
<path d="M194.235 24.46V48.3075" stroke="black" stroke-width="0.72858"/>
<path d="M199.039 27.8281H216.15" stroke="black" stroke-width="0.72858"/>
<path d="M199.039 29.6338H216.15" stroke="black" stroke-width="0.72858"/>
<path d="M199.039 31.6543H216.15" stroke="black" stroke-width="0.72858"/>
<path d="M199.039 33.583H216.15" stroke="black" stroke-width="0.72858"/>
<path d="M199.039 35.5732H216.15" stroke="black" stroke-width="0.72858"/>
<path d="M126.457 65.9434H205.263" stroke="black" stroke-width="0.72858"/>
<path d="M126.457 75.0664H205.263" stroke="black" stroke-width="0.72858"/>
<path d="M210.58 78.4274C214.533 78.4274 217.738 74.9214 217.738 70.5965C217.738 66.2716 214.533 62.7656 210.58 62.7656C206.628 62.7656 203.423 66.2716 203.423 70.5965C203.423 74.9214 206.628 78.4274 210.58 78.4274Z" fill="#F0F0F0" stroke="black" stroke-width="0.80538" stroke-linejoin="round"/>
<path d="M180.996 64.8306C181.992 64.8306 182.8 63.9306 182.8 62.8205C182.8 61.7104 181.992 60.8105 180.996 60.8105C179.999 60.8105 179.191 61.7104 179.191 62.8205C179.191 63.9306 179.999 64.8306 180.996 64.8306Z" fill="#F0F0F0" stroke="black" stroke-width="0.72858" stroke-linejoin="round"/>
<path d="M150.644 64.8306C151.641 64.8306 152.448 63.9306 152.448 62.8205C152.448 61.7104 151.641 60.8105 150.644 60.8105C149.648 60.8105 148.84 61.7104 148.84 62.8205C148.84 63.9306 149.648 64.8306 150.644 64.8306Z" fill="#F0F0F0" stroke="black" stroke-width="0.72858" stroke-linejoin="round"/>
<path d="M199.176 72.1279H190.662" stroke="black" stroke-width="0.72858"/>
<path d="M199.176 70.2295H190.662" stroke="black" stroke-width="0.72858"/>
<path d="M138.339 72.1279H129.825" stroke="black" stroke-width="0.72858"/>
<path d="M138.339 70.2295H129.825" stroke="black" stroke-width="0.72858"/>
<path d="M186.656 20.7256C186.656 20.2217 186.775 19.7268 187.002 19.2904C187.228 18.8541 187.553 18.4917 187.945 18.2398C188.336 17.9879 188.781 17.8552 189.233 17.8552C189.685 17.8552 190.129 17.9879 190.521 18.2398C190.913 18.4917 191.238 18.8541 191.464 19.2904C191.69 19.7268 191.809 20.2217 191.809 20.7256" fill="black"/>
<path d="M186.656 20.7256C186.656 20.2217 186.775 19.7268 187.002 19.2904C187.228 18.8541 187.553 18.4917 187.945 18.2398C188.336 17.9879 188.781 17.8552 189.233 17.8552C189.685 17.8552 190.129 17.9879 190.521 18.2398C190.913 18.4917 191.238 18.8541 191.464 19.2904C191.69 19.7268 191.809 20.2217 191.809 20.7256" stroke="black" stroke-width="0.72858" stroke-linejoin="round"/>
<path d="M115.398 17.5414L105.785 8.39746L104.802 9.77144L114.397 18.9233" stroke="black" stroke-width="0.72858"/>
<path d="M104.783 10.091C105.597 10.091 106.257 9.35603 106.257 8.44934C106.257 7.54265 105.597 6.80762 104.783 6.80762C103.969 6.80762 103.31 7.54265 103.31 8.44934C103.31 9.35603 103.969 10.091 104.783 10.091Z" fill="#F0F0F0" stroke="black" stroke-width="0.72858" stroke-linejoin="round"/>
<path d="M191.79 21.0322H186.681V22.5587H191.79V21.0322Z" fill="black" stroke="black" stroke-width="0.72858"/>
<path d="M177.789 24.3691V48.2099" stroke="black" stroke-width="0.72858"/>
</g>
<defs>
<clipPath id="clip0_136_2316">
<rect width="229" height="81" fill="white"/>
</clipPath>
</defs>
</svg>
